<mxfile host="app.diagrams.net" agent="Mozilla/5.0 (Macintosh; Intel Mac OS X 10_15_7) AppleWebKit/537.36 (KHTML, like Gecko) Chrome/132.0.0.0 YaBrowser/25.2.0.0 Safari/537.36" version="26.2.12">
  <diagram id="zJqfDcdzRWHc-cR4qmVb" name="1">
    <mxGraphModel dx="1847" dy="701" grid="1" gridSize="10" guides="1" tooltips="1" connect="1" arrows="1" fold="1" page="1" pageScale="1" pageWidth="827" pageHeight="1169" math="0" shadow="0">
      <root>
        <mxCell id="0" />
        <mxCell id="1" parent="0" />
        <mxCell id="8VzJB-jgo-zqRVJw5AWm-14" style="edgeStyle=orthogonalEdgeStyle;rounded=0;orthogonalLoop=1;jettySize=auto;html=1;exitX=0.5;exitY=1;exitDx=0;exitDy=0;entryX=0.25;entryY=0;entryDx=0;entryDy=0;fillColor=#f8cecc;strokeColor=#b85450;" parent="1" source="w303RBQVIY8irX92Ho53-2" target="w303RBQVIY8irX92Ho53-4" edge="1">
          <mxGeometry relative="1" as="geometry" />
        </mxCell>
        <mxCell id="8VzJB-jgo-zqRVJw5AWm-15" style="edgeStyle=orthogonalEdgeStyle;rounded=0;orthogonalLoop=1;jettySize=auto;html=1;exitX=0.5;exitY=1;exitDx=0;exitDy=0;entryX=0.25;entryY=0;entryDx=0;entryDy=0;fillColor=#f8cecc;strokeColor=#b85450;" parent="1" source="w303RBQVIY8irX92Ho53-2" target="w303RBQVIY8irX92Ho53-3" edge="1">
          <mxGeometry relative="1" as="geometry" />
        </mxCell>
        <mxCell id="Wq5IIfqzTR2C4_wqMcqS-1" value="&lt;div&gt;&lt;br&gt;&lt;/div&gt;&lt;div&gt;&lt;br&gt;&lt;/div&gt;&lt;div&gt;&lt;br&gt;&lt;/div&gt;&lt;div&gt;Секреты (токены, ключи)&lt;/div&gt;" style="rounded=1;whiteSpace=wrap;html=1;" vertex="1" parent="1">
          <mxGeometry x="-710" y="80" width="160" height="60" as="geometry" />
        </mxCell>
        <mxCell id="-a_gk7HFwFXILDSbLZNb-8" style="edgeStyle=orthogonalEdgeStyle;rounded=0;orthogonalLoop=1;jettySize=auto;html=1;entryX=0.75;entryY=0;entryDx=0;entryDy=0;fillColor=#d5e8d4;strokeColor=#82b366;" parent="1" source="-a_gk7HFwFXILDSbLZNb-2" target="8JJXO-BXeMrhRWN5GTIk-14" edge="1">
          <mxGeometry relative="1" as="geometry">
            <Array as="points">
              <mxPoint x="100" y="240" />
              <mxPoint x="-50" y="240" />
            </Array>
          </mxGeometry>
        </mxCell>
        <mxCell id="-a_gk7HFwFXILDSbLZNb-2" value="&lt;div&gt;&lt;br&gt;&lt;/div&gt;&lt;div&gt;&lt;br&gt;&lt;/div&gt;&lt;div&gt;&lt;br&gt;&lt;/div&gt;Данные для показа недвижимости" style="rounded=1;whiteSpace=wrap;html=1;" parent="1" vertex="1">
          <mxGeometry x="40" y="114.5" width="120" height="81" as="geometry" />
        </mxCell>
        <mxCell id="-a_gk7HFwFXILDSbLZNb-4" value="&lt;div&gt;&lt;br&gt;&lt;/div&gt;&lt;div&gt;&lt;br&gt;&lt;/div&gt;Данные о недвижимости для клиентов" style="rounded=1;whiteSpace=wrap;html=1;" parent="1" vertex="1">
          <mxGeometry x="40" y="80" width="120" height="80" as="geometry" />
        </mxCell>
        <mxCell id="-a_gk7HFwFXILDSbLZNb-6" value="&lt;div&gt;&lt;br&gt;&lt;/div&gt;&lt;div&gt;&lt;br&gt;&lt;/div&gt;&lt;div&gt;&lt;br&gt;&lt;/div&gt;Данные о услугах ЖКХ" style="rounded=1;whiteSpace=wrap;html=1;" parent="1" vertex="1">
          <mxGeometry x="40" y="40" width="120" height="70" as="geometry" />
        </mxCell>
        <mxCell id="8VzJB-jgo-zqRVJw5AWm-8" style="edgeStyle=orthogonalEdgeStyle;rounded=0;orthogonalLoop=1;jettySize=auto;html=1;entryX=0.5;entryY=0;entryDx=0;entryDy=0;fillColor=#fff2cc;strokeColor=#d6b656;" parent="1" source="8VzJB-jgo-zqRVJw5AWm-2" target="8JJXO-BXeMrhRWN5GTIk-14" edge="1">
          <mxGeometry relative="1" as="geometry" />
        </mxCell>
        <mxCell id="8VzJB-jgo-zqRVJw5AWm-9" style="edgeStyle=orthogonalEdgeStyle;rounded=0;orthogonalLoop=1;jettySize=auto;html=1;entryX=0.75;entryY=0;entryDx=0;entryDy=0;fillColor=#fff2cc;strokeColor=#d6b656;" parent="1" source="8VzJB-jgo-zqRVJw5AWm-2" target="w303RBQVIY8irX92Ho53-3" edge="1">
          <mxGeometry relative="1" as="geometry">
            <Array as="points">
              <mxPoint x="-100" y="220" />
              <mxPoint x="-290" y="220" />
            </Array>
          </mxGeometry>
        </mxCell>
        <mxCell id="8VzJB-jgo-zqRVJw5AWm-16" style="edgeStyle=orthogonalEdgeStyle;rounded=0;orthogonalLoop=1;jettySize=auto;html=1;entryX=0.75;entryY=0;entryDx=0;entryDy=0;fillColor=#fff2cc;strokeColor=#d6b656;" parent="1" source="8VzJB-jgo-zqRVJw5AWm-2" target="w303RBQVIY8irX92Ho53-4" edge="1">
          <mxGeometry relative="1" as="geometry">
            <Array as="points">
              <mxPoint x="-100" y="220" />
              <mxPoint x="-530" y="220" />
            </Array>
          </mxGeometry>
        </mxCell>
        <mxCell id="8VzJB-jgo-zqRVJw5AWm-2" value="&lt;div&gt;&lt;br&gt;&lt;/div&gt;&lt;div&gt;&lt;br&gt;&lt;/div&gt;&lt;div&gt;Инструкции и документация&lt;/div&gt;" style="rounded=1;whiteSpace=wrap;html=1;" parent="1" vertex="1">
          <mxGeometry x="-160" y="110" width="120" height="70" as="geometry" />
        </mxCell>
        <mxCell id="8VzJB-jgo-zqRVJw5AWm-6" value="&lt;div&gt;&lt;br&gt;&lt;/div&gt;&lt;div&gt;&lt;br&gt;&lt;/div&gt;Оперционная работа сотрудников" style="rounded=1;whiteSpace=wrap;html=1;" parent="1" vertex="1">
          <mxGeometry x="-160" y="70" width="120" height="70" as="geometry" />
        </mxCell>
        <mxCell id="8VzJB-jgo-zqRVJw5AWm-4" value="&lt;div&gt;&lt;br&gt;&lt;/div&gt;&lt;div&gt;&lt;br&gt;&lt;/div&gt;&lt;div&gt;&lt;br&gt;&lt;/div&gt;Внутренние отчеты" style="rounded=1;whiteSpace=wrap;html=1;" parent="1" vertex="1">
          <mxGeometry x="-160" y="40" width="120" height="60" as="geometry" />
        </mxCell>
        <mxCell id="8JJXO-BXeMrhRWN5GTIk-25" style="edgeStyle=orthogonalEdgeStyle;rounded=0;orthogonalLoop=1;jettySize=auto;html=1;entryX=0.5;entryY=0;entryDx=0;entryDy=0;fillColor=#ffe6cc;strokeColor=#d79b00;dashed=1;" parent="1" source="8JJXO-BXeMrhRWN5GTIk-8" target="w303RBQVIY8irX92Ho53-3" edge="1">
          <mxGeometry relative="1" as="geometry" />
        </mxCell>
        <mxCell id="8JJXO-BXeMrhRWN5GTIk-26" style="edgeStyle=orthogonalEdgeStyle;rounded=0;orthogonalLoop=1;jettySize=auto;html=1;entryX=0.25;entryY=0;entryDx=0;entryDy=0;fillColor=#ffe6cc;strokeColor=#d79b00;dashed=1;" parent="1" source="8JJXO-BXeMrhRWN5GTIk-8" target="8JJXO-BXeMrhRWN5GTIk-14" edge="1">
          <mxGeometry relative="1" as="geometry">
            <Array as="points">
              <mxPoint x="-340" y="240" />
              <mxPoint x="-150" y="240" />
            </Array>
          </mxGeometry>
        </mxCell>
        <mxCell id="8VzJB-jgo-zqRVJw5AWm-13" style="edgeStyle=orthogonalEdgeStyle;rounded=0;orthogonalLoop=1;jettySize=auto;html=1;fillColor=#ffe6cc;strokeColor=#d79b00;dashed=1;" parent="1" source="8JJXO-BXeMrhRWN5GTIk-8" target="w303RBQVIY8irX92Ho53-4" edge="1">
          <mxGeometry relative="1" as="geometry">
            <Array as="points">
              <mxPoint x="-340" y="240" />
              <mxPoint x="-580" y="240" />
            </Array>
          </mxGeometry>
        </mxCell>
        <mxCell id="8JJXO-BXeMrhRWN5GTIk-8" value="&lt;div&gt;&lt;br&gt;&lt;/div&gt;&lt;div&gt;&lt;br&gt;&lt;/div&gt;Данные о сделках" style="rounded=1;whiteSpace=wrap;html=1;" parent="1" vertex="1">
          <mxGeometry x="-400" y="130" width="120" height="50" as="geometry" />
        </mxCell>
        <mxCell id="8JJXO-BXeMrhRWN5GTIk-6" value="&lt;div&gt;&lt;br&gt;&lt;/div&gt;&lt;div&gt;&lt;br&gt;&lt;/div&gt;Персональные данные клиентов и собственников" style="rounded=1;whiteSpace=wrap;html=1;" parent="1" vertex="1">
          <mxGeometry x="-400" y="80" width="120" height="80" as="geometry" />
        </mxCell>
        <mxCell id="8JJXO-BXeMrhRWN5GTIk-10" value="&lt;div&gt;&lt;br&gt;&lt;/div&gt;&lt;div&gt;&lt;br&gt;&lt;/div&gt;&lt;div&gt;&lt;br&gt;&lt;/div&gt;Финансовая отчетность" style="rounded=1;whiteSpace=wrap;html=1;" parent="1" vertex="1">
          <mxGeometry x="-400" y="40" width="120" height="70" as="geometry" />
        </mxCell>
        <mxCell id="w303RBQVIY8irX92Ho53-2" value="&lt;div&gt;&lt;br&gt;&lt;/div&gt;&lt;div&gt;&lt;br&gt;&lt;/div&gt;&lt;div&gt;&lt;br&gt;&lt;/div&gt;&lt;div&gt;Данные для авторизации (пароли, учетные записи)&lt;/div&gt;" style="rounded=1;whiteSpace=wrap;html=1;" parent="1" vertex="1">
          <mxGeometry x="-710" y="50" width="160" height="70" as="geometry" />
        </mxCell>
        <mxCell id="RoPjOwy0LcF4oUtV1qmm-21" value="Внутренние данные" style="rounded=1;whiteSpace=wrap;html=1;fillColor=#fff2cc;strokeColor=#d6b656;" parent="1" vertex="1">
          <mxGeometry x="-160" y="40" width="120" height="40" as="geometry" />
        </mxCell>
        <mxCell id="RoPjOwy0LcF4oUtV1qmm-23" value="Публичные данные" style="rounded=1;whiteSpace=wrap;html=1;fillColor=#d5e8d4;strokeColor=#82b366;" parent="1" vertex="1">
          <mxGeometry x="40" y="40" width="120" height="40" as="geometry" />
        </mxCell>
        <mxCell id="RoPjOwy0LcF4oUtV1qmm-25" value="Конфиденциальные данные" style="rounded=1;whiteSpace=wrap;html=1;fillColor=#ffe6cc;strokeColor=#d79b00;" parent="1" vertex="1">
          <mxGeometry x="-400" y="40" width="120" height="40" as="geometry" />
        </mxCell>
        <mxCell id="RoPjOwy0LcF4oUtV1qmm-27" value="Секретные данные" style="rounded=1;whiteSpace=wrap;html=1;fillColor=#f8cecc;strokeColor=#b85450;" parent="1" vertex="1">
          <mxGeometry x="-710" y="50" width="160" height="40" as="geometry" />
        </mxCell>
        <mxCell id="w303RBQVIY8irX92Ho53-3" value="&lt;div&gt;&lt;b&gt;Риск потери данных&lt;/b&gt;&lt;/div&gt;&lt;div&gt;&lt;b&gt;&lt;br&gt;&lt;/b&gt;&lt;/div&gt;&lt;div&gt;Уровень: Критический&amp;nbsp;&lt;/div&gt;&lt;div&gt;Последствия: Репутационные потери, нарушение\снижение эффективности рабочих процессов&lt;/div&gt;" style="rounded=1;whiteSpace=wrap;html=1;fillColor=#f8cecc;strokeColor=#b85450;" parent="1" vertex="1">
          <mxGeometry x="-440" y="280" width="200" height="120" as="geometry" />
        </mxCell>
        <mxCell id="w303RBQVIY8irX92Ho53-4" value="&lt;div&gt;&lt;b&gt;Риск утечки данных&lt;/b&gt;&lt;/div&gt;&lt;div&gt;&lt;br&gt;&lt;/div&gt;&lt;div&gt;Уровень: Критический&amp;nbsp;&lt;/div&gt;&lt;div&gt;Последствия: Нарушение 152 ФЗ. Финансовые и репутационные потери, нарушение\снижение эффективности рабочих процессов&lt;/div&gt;" style="rounded=1;whiteSpace=wrap;html=1;fillColor=#f8cecc;strokeColor=#b85450;" parent="1" vertex="1">
          <mxGeometry x="-680" y="280" width="200" height="120" as="geometry" />
        </mxCell>
        <mxCell id="8JJXO-BXeMrhRWN5GTIk-14" value="&lt;div&gt;&lt;b&gt;Риск искажения данных&lt;/b&gt;&lt;/div&gt;&lt;div&gt;&lt;br&gt;&lt;/div&gt;&lt;div&gt;Уровень: Значительный&amp;nbsp;&lt;/div&gt;&lt;div&gt;Последствия: Репутационные потери, нарушение\снижение эффективности рабочих процессов&lt;/div&gt;" style="rounded=1;whiteSpace=wrap;html=1;fillColor=#ffe6cc;strokeColor=#d79b00;" parent="1" vertex="1">
          <mxGeometry x="-200" y="280" width="200" height="120" as="geometry" />
        </mxCell>
      </root>
    </mxGraphModel>
  </diagram>
</mxfile>
